<svg viewBox="0 0 337.9162306331829 26.595530426084906" height="26.595530426084906" width="337.9162306331829" xmlns="http://www.w3.org/2000/svg"><defs id="SvgjsDefs3361"></defs><g id="SvgjsG3362" featurekey="nameLeftFeature-0" transform="matrix(0.9498403723601753,0,0,0.9498403723601753,-2.2796156254907056,-11.398083562483736)" fill="#E67E5A"><path d="M21.4 40 l-5.12 0 l0 -11.44 l-8.76 0 l0 11.44 l-5.12 0 l0 -28 l5.12 0 l0 11.44 l8.76 0 l0 -11.44 l5.12 0 l0 28 z M43.498 17.12 l-11.44 0 l0 6.32 l11.44 0 l0 5.12 l-11.44 0 l0 6.32 l11.44 0 l0 5.12 l-16.56 0 l0 -28 l16.56 0 l0 5.12 z M49.036 12 l14 0 c0.68 0 1.32 0.28 1.8 0.76 l2.48 2.44 c0.48 0.48 0.72 1.12 0.72 1.8 l0 8.2 c0 0.68 -0.24 1.32 -0.72 1.8 l-2.32 2.28 l3.04 10.72 l-5.32 0 l-2.6 -9.08 l-0.96 -0.72 l-5 0 l0 9.8 l-5.12 0 l0 -28 z M54.156 17.12 l0 7.96 l7.84 0 l0.92 -0.96 l0 -6.04 l-0.92 -0.96 l-7.84 0 z M86.054 17.12 l-3.68 0 l0 17.76 l3.68 0 l0 5.12 l-12.48 0 l0 -5.12 l3.68 0 l0 -17.76 l-3.68 0 l0 -5.12 l12.48 0 l0 5.12 z M109.792 17.12 l-6.56 0 l0 22.88 l-5.12 0 l0 -22.88 l-6.52 0 l0 -5.12 l18.2 0 l0 5.12 z M123.69 12 l3.92 0 c0.6 0 1.2 0.24 1.68 0.64 l2.4 2.08 c0.48 0.4 0.8 0.96 0.88 1.6 l2.28 15.92 l1.08 7.76 l-5.16 0 l-0.92 -6.52 l-8.4 0 l-0.96 6.52 l-5.16 0 l3.4 -23.68 c0.08 -0.64 0.36 -1.2 0.84 -1.6 l2.44 -2.08 c0.44 -0.4 1.04 -0.64 1.68 -0.64 z M124.65 17.12 l-1 0.84 l-1.48 10.4 l6.92 0 l-1.48 -10.4 l-0.96 -0.84 l-2 0 z M159.668 17.12 l-12.12 0 l-0.96 0.96 l0 15.84 l0.96 0.96 l6.88 0 l0.92 -0.96 l0 -5.36 l-4.88 0 l0 -5.12 l10 0 l0 11.56 c0 0.68 -0.24 1.32 -0.72 1.8 l-2.48 2.44 c-0.48 0.48 -1.12 0.76 -1.8 0.76 l-9 0 c-0.68 0 -1.32 -0.28 -1.8 -0.76 l-2.44 -2.44 c-0.48 -0.48 -0.76 -1.12 -0.76 -1.8 l0 -18 c0 -0.68 0.28 -1.32 0.76 -1.8 l2.44 -2.44 c0.48 -0.48 1.12 -0.76 1.8 -0.76 l13.2 0 l0 5.12 z M182.566 17.12 l-11.44 0 l0 6.32 l11.44 0 l0 5.12 l-11.44 0 l0 6.32 l11.44 0 l0 5.12 l-16.56 0 l0 -28 l16.56 0 l0 5.12 z M214.042 17.12 l-12.12 0 l-0.96 0.96 l0 15.84 l0.96 0.96 l6.88 0 l0.92 -0.96 l0 -5.36 l-4.88 0 l0 -5.12 l10 0 l0 11.56 c0 0.68 -0.24 1.32 -0.72 1.8 l-2.48 2.44 c-0.48 0.48 -1.12 0.76 -1.8 0.76 l-9 0 c-0.68 0 -1.32 -0.28 -1.8 -0.76 l-2.44 -2.44 c-0.48 -0.48 -0.76 -1.12 -0.76 -1.8 l0 -18 c0 -0.68 0.28 -1.32 0.76 -1.8 l2.44 -2.44 c0.48 -0.48 1.12 -0.76 1.8 -0.76 l13.2 0 l0 5.12 z"></path></g><g id="SvgjsG3363" featurekey="inlineSymbolFeature-0" transform="matrix(0.13797110464009477,0,0,0.13797110464009477,195.93727678701345,-10.720134408558804)" fill="#E67E5A"><g xmlns="http://www.w3.org/2000/svg"><path d="M179.35 245.34q10.59-1.56 17.62-5.04 7.79-3.85 14.7-9.11c6.09-4.63 10.25-11.11 14.27-17.94q8.57-14.6 8.84-32.24c.25-16.46.12-28.21 1.07-40.98q1.24-16.78 10.01-34.58 8.05-16.32 21.91-27.69a.31.31 0 0 1 .45.41c-8.72 13.69-14.12 29.4-14.12 45.58q-.01 41.24.21 49.76c.42 16.93-4.18 31.56-13.09 44.96-6.4 9.61-15.19 15.93-25.9 21.6-10.95 5.8-24.09 6.73-35.94 5.9a.32.32 0 0 1-.03-.63" fill="#E67E5A"></path><path d="M253.55 235.18a.28.28 0 0 1 .38.4q-6.45 8.76-14.45 15.14c-6.22 4.96-12.47 9.33-19.96 12.67q-9.49 4.23-22.74 6.09-27.76 3.9-52.45-7.72-11.69-5.5-19.71-12.79c-8.04-7.32-15.95-16.29-21.14-26.44q-.9-1.76-4.96-12.87c-3.47-9.51-4.89-20.07-4.71-28.91q.67-34.04.21-60.99c-.16-9.41-3.21-19.23-6.87-28.41q-2.61-6.54-6.92-12.65a.31.31 0 0 1 .44-.42c12.66 9.57 20.15 21.69 25.91 36.08q5.66 14.13 6.02 31.33c.29 13.46-.15 22.38 1.34 33.22q1.12 8.08 1.82 11.32c2.04 9.36 5.5 16.05 10.84 25.59q3.43 6.12 7.17 10.2c11.26 12.29 25.07 22.42 40.93 26.53 11.86 3.08 22.05 4.63 32.8 2.95q2.43-.38 12.58-2.67c10.67-2.41 20.43-7.72 28.65-14.13q2.82-2.2 4.82-3.52" fill="#E67E5A"></path></g></g><g id="SvgjsG3364" featurekey="nameRightFeature-0" transform="matrix(0.9494852871080793,0,0,0.9494852871080793,235.72123476764077,-11.393819823298024)" fill="#E67E5A"><path d="M14.88 17.12 l-3.68 0 l0 17.76 l3.68 0 l0 5.12 l-12.48 0 l0 -5.12 l3.68 0 l0 -17.76 l-3.68 0 l0 -5.12 l12.48 0 l0 5.12 z M20.418 12 l14 0 c0.68 0 1.32 0.28 1.8 0.76 l2.48 2.44 c0.48 0.48 0.72 1.12 0.72 1.8 l0 18 c0 0.68 -0.24 1.32 -0.72 1.8 l-2.48 2.44 c-0.48 0.48 -1.12 0.76 -1.8 0.76 l-14 0 l0 -28 z M25.538 17.12 l0 17.76 l7.84 0 l0.92 -0.96 l0 -15.84 l-0.92 -0.96 l-7.84 0 z M57.436 17.12 l-3.68 0 l0 17.76 l3.68 0 l0 5.12 l-12.48 0 l0 -5.12 l3.68 0 l0 -17.76 l-3.68 0 l0 -5.12 l12.48 0 l0 5.12 z M83.094 12 l0 25.44 c0 1.12 -0.72 2.12 -1.84 2.44 c-0.96 0.32 -2.08 0.08 -2.84 -1.04 l-10.32 -15.72 l0 16.88 l-5.12 0 l0 -25.44 c0 -1.12 0.76 -2.12 1.84 -2.44 s2.24 0.08 2.88 1.04 l10.28 15.72 l0 -16.88 l5.12 0 z M106.832 17.12 l-12.12 0 l-0.96 0.96 l0 15.84 l0.96 0.96 l6.88 0 l0.92 -0.96 l0 -5.36 l-4.88 0 l0 -5.12 l10 0 l0 11.56 c0 0.68 -0.24 1.32 -0.72 1.8 l-2.48 2.44 c-0.48 0.48 -1.12 0.76 -1.8 0.76 l-9 0 c-0.68 0 -1.32 -0.28 -1.8 -0.76 l-2.44 -2.44 c-0.48 -0.48 -0.76 -1.12 -0.76 -1.8 l0 -18 c0 -0.68 0.28 -1.32 0.76 -1.8 l2.44 -2.44 c0.48 -0.48 1.12 -0.76 1.8 -0.76 l13.2 0 l0 5.12 z"></path></g></svg>